<svg t="1634865534891" class="icon" viewBox="0 0 1024 1024" version="1.1" xmlns="http://www.w3.org/2000/svg" p-id="2125"
     width="200" height="200">
    <path d="M644.8 474.56c3.456-2.112 6.976-4.032 10.304-6.272 6.784-4.608 13.376-9.536 19.712-14.72s12.416-10.688 18.176-16.512c5.824-5.76 11.328-11.84 16.576-18.176 5.184-6.336 10.048-12.928 14.656-19.712s8.896-13.888 12.864-21.12c3.904-7.232 7.488-14.72 10.752-22.4s6.144-15.488 8.64-23.488c2.496-8 4.608-16.192 6.336-24.512s3.008-16.832 3.904-25.408C767.552 273.536 768 264.832 768 256s-0.448-17.536-1.344-26.176c-0.896-8.576-2.176-17.088-3.904-25.408s-3.84-16.512-6.336-24.512c-2.496-8-5.376-15.872-8.64-23.488s-6.848-15.104-10.752-22.4c-4.032-7.232-8.256-14.336-12.864-21.12s-9.472-13.376-14.656-19.712c-5.248-6.336-10.752-12.352-16.576-18.176-5.76-5.824-11.904-11.328-18.176-16.512s-12.864-10.176-19.712-14.72-13.888-8.896-21.12-12.864-14.72-7.488-22.4-10.752S596.096 14.016 588.096 11.52 571.968 6.912 563.584 5.184c-8.32-1.664-16.832-3.008-25.408-3.904C529.536 0.448 520.832 0 512 0S494.464 0.448 485.824 1.344C477.248 2.176 468.736 3.52 460.416 5.184c-8.32 1.728-16.512 3.84-24.512 6.336C427.904 14.016 420.032 16.896 412.352 20.096s-15.104 6.784-22.4 10.752S375.68 39.104 368.896 43.712s-13.376 9.536-19.712 14.72C342.848 63.68 336.768 69.184 331.008 75.008c-5.824 5.76-11.328 11.84-16.512 18.176-5.248 6.336-10.176 12.928-14.72 19.712S290.816 126.72 286.848 134.016s-7.488 14.72-10.752 22.4S270.016 171.904 267.52 179.904C265.024 187.904 262.912 196.032 261.184 204.416c-1.664 8.32-3.008 16.832-3.904 25.408C256.448 238.464 256 247.168 256 256s0.448 17.536 1.344 26.176c0.896 8.576 2.176 17.088 3.904 25.408 1.728 8.32 3.84 16.512 6.336 24.512 2.496 8 5.376 15.872 8.64 23.488s6.784 15.104 10.752 22.4 8.256 14.336 12.864 21.12 9.536 13.376 14.72 19.712c5.248 6.336 10.688 12.352 16.512 18.176 5.76 5.824 11.84 11.328 18.176 16.512 6.336 5.248 12.928 10.176 19.712 14.72 2.56 1.728 5.312 3.2 8 4.864C199.104 527.232 66.304 688.832 66.304 896l52.992 0c0-192 178.368-389.504 389.504-389.504S898.304 704 898.304 896l52.992 0C951.296 690.432 820.48 529.856 644.8 474.56zM363.904 378.048C360 373.312 356.288 368.384 352.832 363.264s-6.656-10.432-9.6-15.872S337.536 336.384 335.104 330.688 330.56 319.04 328.64 313.024c-1.856-6.016-3.456-12.16-4.736-18.432S321.664 282.048 321.024 275.584C320.32 269.184 320 262.656 320 256s0.32-13.184 1.024-19.584c0.64-6.464 1.6-12.8 2.88-19.008s2.88-12.352 4.736-18.432c1.856-6.016 4.032-11.904 6.464-17.6s5.12-11.328 8.064-16.768 6.144-10.752 9.6-15.872 7.168-10.048 11.072-14.784S371.968 124.672 376.32 120.32s8.896-8.512 13.632-12.416 9.664-7.616 14.784-11.072 10.432-6.656 15.872-9.6 11.072-5.632 16.768-8.064 11.648-4.608 17.6-6.464c6.016-1.856 12.16-3.456 18.432-4.736s12.544-2.24 19.008-2.88C498.816 64.32 505.344 64 512 64s13.184 0.32 19.648 1.024c6.464 0.64 12.8 1.6 19.008 2.88 6.208 1.28 12.352 2.88 18.368 4.736 6.016 1.856 11.904 4.032 17.664 6.464 5.696 2.432 11.328 5.12 16.768 8.064s10.688 6.144 15.808 9.6 10.048 7.168 14.784 11.072 9.344 8.064 13.632 12.416 8.512 8.896 12.416 13.632c3.904 4.736 7.616 9.664 11.072 14.784s6.656 10.432 9.6 15.872 5.632 11.072 8.064 16.768 4.608 11.648 6.528 17.6c1.856 6.016 3.456 12.16 4.736 18.432 1.28 6.272 2.24 12.544 2.88 19.008C703.616 242.816 704 249.344 704 256s-0.384 13.184-1.024 19.584c-0.64 6.464-1.6 12.8-2.88 19.008-1.344 6.272-2.88 12.352-4.736 18.432-1.856 6.016-4.032 11.904-6.528 17.6s-5.12 11.328-8.064 16.768-6.208 10.752-9.6 15.872-7.168 10.048-11.072 14.784c-3.968 4.736-8.128 9.28-12.416 13.632S638.784 400.192 634.048 404.096 624.384 411.712 619.264 415.168s-10.368 6.656-15.808 9.6S592.384 430.464 586.688 432.896c-5.76 2.432-11.648 4.608-17.664 6.464-6.016 1.856-12.16 3.456-18.368 4.736-6.272 1.28-12.608 2.24-19.008 2.88C525.184 447.68 518.656 448 512 448S498.816 447.68 492.416 446.976c-6.464-0.64-12.8-1.6-19.008-2.88S460.992 441.216 454.976 439.36C448.96 437.44 443.072 435.328 437.312 432.896s-11.328-5.12-16.768-8.064-10.752-6.144-15.872-9.6S394.688 408 389.952 404.096 380.672 396.032 376.32 391.68 367.808 382.784 363.904 378.048z"
          p-id="2126" fill="#00000"></path>
</svg>