<svg t="1634825737151" class="icon" viewBox="0 0 1195 1024" version="1.1" xmlns="http://www.w3.org/2000/svg" p-id="3627"
     width="200" height="200">
    <path d="M1125.400405 972.814933 651.636395 972.814933 651.636395 631.106304C651.636395 491.702016 663.719168 382.333696 687.885227 302.997931 712.0512 223.662165 737.181781 170.700459 802.935893 107.231829 868.68992 43.763285 914.312789 24.717568 1010.828373 0L1078.255957 145.030059C1010.828373 170.796971 969.749333 182.289237 906.391381 248.024235 843.033429 313.759232 838.360149 377.340075 838.360149 431.988736L1125.400405 431.988736 1125.400405 972.814933ZM473.764096 972.814933 0 972.814933 0 631.106304C0 491.702016 12.082859 382.333696 36.248832 302.997931 60.414891 223.662165 85.545472 170.700459 151.299499 107.231829 217.053611 43.763285 262.676395 24.717568 359.192064 0L426.619563 145.030059C359.192064 170.796971 318.112939 182.289237 254.754987 248.024235 191.397035 313.759232 186.723755 377.340075 186.723755 431.988736L473.764096 431.988736 473.764096 972.814933Z"
          p-id="3628" fill="#cdcdcd"></path>
</svg>